<svg xmlns="http://www.w3.org/2000/svg" width="155" height="55" fill="none" class="control-center__logo js-toggle-cc"><path fill="#fff" d="M58.497 38.15c0 2.16-1.135 3.407-3.124 3.407-.446 0-.707-.038-.986-.093l-.316-.075v3.07l.223.038c.447.074.819.112 1.432.112 3.942 0 6.304-2.438 6.304-6.514v-20.08h-3.533V38.15Zm1.766-28.287c-1.264 0-2.25.968-2.25 2.178S59 14.2 60.263 14.2c1.246 0 2.25-.968 2.25-2.16 0-1.19-1.004-2.177-2.25-2.177ZM74.097 25.31c-.279-.056-.558-.13-.8-.168-2.23-.483-3.216-.744-3.216-2.121 0-.633.204-1.135.595-1.508.52-.502 1.394-.763 2.529-.744 1.97-.037 3.142.875 3.365 2.624l.037.242 3.533-.205-.037-.279c-.428-3.387-2.938-5.397-6.694-5.397h-.093c-2.306-.019-4.146.577-5.336 1.73-.949.913-1.45 2.141-1.45 3.574 0 3.648 2.881 4.299 6.228 5.062 3.347.782 4.184 1.172 4.184 2.661 0 2.085-2.38 2.308-3.403 2.308-1.58 0-3.533-.465-3.849-2.699l-.037-.242-3.533.242.037.28c.484 3.48 3.143 5.471 7.308 5.471 4.388 0 6.991-2.103 6.991-5.602.019-3.461-2.993-4.448-6.359-5.23ZM93.695 17.717c-5.299 0-8.85 3.685-8.85 9.193 0 5.509 3.551 9.231 8.85 9.231 2.455 0 4.63-.875 5.876-2.345v2.94c0 3.146-2.008 5.025-5.355 5.025-2.808 0-4.871-1.396-5.243-3.536l-.038-.223-3.532.112.055.297c.763 3.964 4.091 6.328 8.87 6.328 5.336 0 8.776-3.22 8.776-8.207V26.296c0-4.727-3.83-8.58-8.572-8.58h-.837Zm.41 15.372c-3.459 0-5.709-2.42-5.709-6.141 0-3.76 2.231-6.179 5.709-6.179 3.42 0 5.448 2.122 5.448 5.676v1.024c.018 3.461-2.083 5.62-5.448 5.62ZM118.983 28.362c0 2.252-1.45 4.522-4.239 4.522-2.455 0-3.924-1.619-3.924-4.355V18.015h-3.532v10.924c0 4.299 2.714 7.202 6.749 7.202 2.473 0 4.165-1.06 5.076-2.252v1.898h3.385V18.015h-3.533v10.347h.018ZM128.057 26.184v9.603h3.533v-10.18c0-2.642 2.008-4.485 4.89-4.485h.261V17.81h-.354c-4.592.018-8.33 3.778-8.33 8.375ZM151.467 18.015v10.347c0 2.252-1.45 4.522-4.239 4.522-2.455 0-3.924-1.619-3.924-4.355V18.015h-3.533v10.924c0 4.299 2.715 7.202 6.75 7.202 2.473 0 4.165-1.06 5.076-2.252v1.898h3.384V18.015h-3.514Z"/><path fill="url(#a)" d="M23.614 0 0 13.641v27.301l23.614 13.642L47.23 40.942v-27.3L23.614 0Zm0 50.806L3.273 39.063V15.558l20.341-11.78 20.342 11.761v23.505L23.614 50.806Zm-2.752-12.767 1.637 2.848 13.425-7.76-1.637-2.848-13.424 7.76Zm5.504-21.476-1.636-2.847-13.425 7.76 1.636 2.848 13.425-7.76Zm7.791 2.754-22.703 13.12 1.636 2.848 22.704-13.12-1.637-2.848Z"/><defs><linearGradient id="a" x1="0" x2="75.395" y1="0" y2="6.815" gradientUnits="userSpaceOnUse"><stop stop-color="#1EA5FC"/><stop offset="0" stop-color="#1EA5FC"/><stop offset="1" stop-color="#00F2FE"/></linearGradient></defs></svg>